<?xml version="1.0" standalone="no"?>
<!DOCTYPE svg PUBLIC "-//W3C//DTD SVG 20010904//EN"
 "http://www.w3.org/TR/2001/REC-SVG-20010904/DTD/svg10.dtd">
<svg version="1.0" xmlns="http://www.w3.org/2000/svg"
 width="1080.000000pt" height="1080.000000pt" viewBox="0 0 1080.000000 1080.000000"
 preserveAspectRatio="xMidYMid meet">

<g transform="translate(0.000000,1080.000000) scale(0.100000,-0.100000)"
fill="#fff" stroke="none">
<path d="M3045 10336 c-83 -20 -146 -56 -211 -120 -65 -66 -105 -137 -123
-224 -6 -31 -11 -156 -11 -297 l0 -243 -297 -4 c-268 -4 -306 -7 -378 -27
-314 -86 -564 -337 -647 -651 l-23 -85 0 -3285 0 -3285 23 -85 c84 -317 335
-568 652 -652 l85 -23 3285 0 3285 0 85 23 c322 85 566 331 653 655 l22 82 0
3285 0 3285 -22 82 c-86 322 -329 567 -648 655 -72 19 -111 22 -377 26 l-298
4 0 243 c0 261 -7 315 -48 405 -34 72 -131 169 -204 203 -177 83 -377 49 -514
-87 -65 -66 -105 -138 -123 -224 -6 -31 -11 -156 -11 -297 l0 -245 -1800 0
-1800 0 0 245 c0 144 -5 266 -11 297 -19 86 -59 158 -124 224 -112 113 -267
157 -420 120z m5505 -5611 l0 -2475 -3150 0 -3150 0 0 2475 0 2475 3150 0
3150 0 0 -2475z"/>
<path d="M3495 5836 c-83 -20 -146 -56 -211 -120 -136 -137 -171 -337 -87
-514 53 -114 182 -213 311 -241 72 -15 1010 -15 1084 0 87 18 158 58 223 123
71 71 110 147 127 247 40 230 -118 459 -350 508 -77 16 -1029 14 -1097 -3z"/>
<path d="M6195 4936 c-83 -20 -146 -56 -211 -120 -105 -105 -150 -245 -126
-387 17 -100 55 -174 126 -244 66 -65 138 -105 224 -124 72 -15 1010 -15 1084
0 87 18 158 58 223 123 71 71 110 147 127 247 40 230 -118 459 -350 508 -77
16 -1029 14 -1097 -3z"/>
<path d="M3495 4036 c-83 -20 -146 -56 -211 -120 -136 -137 -171 -337 -87
-514 53 -114 182 -213 311 -241 72 -15 1010 -15 1084 0 87 18 158 58 223 123
71 71 110 147 127 247 40 230 -118 459 -350 508 -77 16 -1029 14 -1097 -3z"/>
</g>
</svg>
