<?xml version="1.0" standalone="no"?>
<!DOCTYPE svg PUBLIC "-//W3C//DTD SVG 20010904//EN"
 "http://www.w3.org/TR/2001/REC-SVG-20010904/DTD/svg10.dtd">
<svg version="1.0" xmlns="http://www.w3.org/2000/svg"
 width="1080.000000pt" height="1080.000000pt" viewBox="0 0 1080.000000 1080.000000"
 preserveAspectRatio="xMidYMid meet">

<g transform="translate(0.000000,1080.000000) scale(0.100000,-0.100000)"
fill="#fff" stroke="none">
<path d="M1637 9434 c-338 -61 -619 -325 -709 -664 l-23 -85 0 -2530 c0 -2337
1 -2532 17 -2560 57 -104 183 -152 286 -110 25 11 192 171 537 515 l500 500
2100 2 2100 3 80 23 c323 91 562 333 648 655 l22 82 0 1710 0 1710 -22 82
c-86 322 -325 564 -648 655 l-80 23 -2365 2 c-1998 1 -2377 -1 -2443 -13z"/>
<path d="M8100 6255 c0 -603 -4 -981 -11 -1043 -39 -358 -182 -694 -414 -972
-228 -273 -553 -481 -896 -574 -235 -63 -124 -59 -1722 -63 l-1459 -4 4 -297
c4 -267 7 -305 27 -377 85 -312 331 -558 646 -647 l80 -23 2101 -3 2100 -2
495 -496 c336 -338 507 -503 534 -515 51 -24 129 -24 180 0 52 23 111 90 125
140 7 27 9 795 8 2553 l-3 2513 -22 77 c-92 323 -329 561 -648 650 -77 21 -99
22 -602 26 l-523 3 0 -946z"/>
</g>
</svg>
