<svg version="1.0" xmlns="http://www.w3.org/2000/svg"
 width="1080.000000pt" height="1080.000000pt" viewBox="0 0 1080.000000 1080.000000"
 preserveAspectRatio="xMidYMid meet">
<g transform="translate(0.000000,1080.000000) scale(0.100000,-0.100000)"
fill="#EE4445" stroke="none">
<path d="M1645 9885 c-351 -65 -632 -330 -722 -682 -17 -63 -18 -180 -18
-1773 0 -1596 1 -1710 18 -1780 75 -319 326 -577 653 -672 l79 -23 1229 -3
c1350 -3 1325 -4 1482 57 270 105 479 339 556 621 l23 85 0 1710 0 1710 -23
85 c-77 282 -286 516 -556 621 -155 60 -133 59 -1450 58 -936 -1 -1216 -4
-1271 -14z m2405 -2460 l0 -1575 -1125 0 -1125 0 0 1575 0 1575 1125 0 1125 0
0 -1575z"/>
<path d="M6595 9885 c-351 -65 -632 -330 -722 -682 -16 -62 -18 -138 -18 -873
0 -735 2 -812 18 -880 75 -319 326 -577 653 -672 l79 -23 1229 -3 c1350 -3
1325 -4 1482 57 270 105 479 339 556 621 l23 85 0 810 0 810 -23 85 c-77 282
-286 516 -556 621 -155 60 -133 59 -1450 58 -936 -1 -1216 -4 -1271 -14z
m2405 -1560 l0 -675 -1125 0 -1125 0 0 675 0 675 1125 0 1125 0 0 -675z"/>
<path d="M6595 5835 c-351 -65 -632 -330 -722 -682 -17 -63 -18 -180 -18
-1773 0 -1596 1 -1710 18 -1780 75 -319 326 -577 653 -672 l79 -23 1229 -3
c1350 -3 1325 -4 1482 57 270 105 479 339 556 621 l23 85 0 1710 0 1710 -23
85 c-77 282 -286 516 -556 621 -155 60 -133 59 -1450 58 -936 -1 -1216 -4
-1271 -14z m2405 -2460 l0 -1575 -1125 0 -1125 0 0 1575 0 1575 1125 0 1125 0
0 -1575z"/>
<path d="M1645 4035 c-351 -65 -632 -330 -722 -682 -16 -62 -18 -138 -18 -873
0 -735 2 -812 18 -880 75 -319 326 -577 653 -672 l79 -23 1229 -3 c1350 -3
1325 -4 1482 57 270 105 479 339 556 621 l23 85 0 810 0 810 -23 85 c-77 282
-286 516 -556 621 -155 60 -133 59 -1450 58 -936 -1 -1216 -4 -1271 -14z
m2405 -1560 l0 -675 -1125 0 -1125 0 0 675 0 675 1125 0 1125 0 0 -675z"/>
</g>
</svg>
