<?xml version="1.0" standalone="no"?>
<!DOCTYPE svg PUBLIC "-//W3C//DTD SVG 20010904//EN"
 "http://www.w3.org/TR/2001/REC-SVG-20010904/DTD/svg10.dtd">
<svg version="1.0" xmlns="http://www.w3.org/2000/svg"
 width="1080.000000pt" height="1080.000000pt" viewBox="0 0 1080.000000 1080.000000"
 preserveAspectRatio="xMidYMid meet">

<g transform="translate(0.000000,1080.000000) scale(0.100000,-0.100000)"
fill="#fff" stroke="none">
<path d="M4615 9886 c-127 -31 -234 -115 -290 -229 -31 -63 -45 -122 -116
-483 l-81 -411 -106 -43 c-282 -114 -621 -310 -846 -491 -33 -27 -63 -46 -67
-44 -4 3 -177 64 -385 136 -340 117 -388 131 -465 136 -145 9 -266 -40 -361
-147 -53 -59 -749 -1265 -771 -1335 -26 -82 -29 -144 -13 -221 16 -78 50 -154
92 -203 22 -26 604 -540 636 -562 5 -3 -2 -79 -14 -170 -32 -234 -32 -604 0
-838 12 -91 19 -167 14 -170 -32 -22 -614 -536 -636 -562 -68 -81 -112 -224
-100 -328 3 -31 16 -82 28 -113 11 -31 179 -330 371 -664 252 -437 364 -623
402 -663 87 -96 194 -141 333 -141 70 0 99 8 385 106 171 58 351 120 401 137
l91 30 129 -96 c216 -161 517 -331 768 -434 61 -25 112 -46 113 -47 1 -1 38
-185 82 -409 91 -466 102 -500 198 -595 63 -62 138 -103 221 -121 74 -15 1470
-15 1544 0 80 17 182 74 235 133 83 92 96 133 184 583 44 224 81 408 82 409 1
0 40 16 87 34 131 52 422 201 550 281 63 40 174 116 245 169 l130 96 385 -134
c346 -120 394 -134 471 -139 96 -6 169 10 252 55 97 52 133 106 495 736 189
328 354 621 368 651 36 78 48 164 34 246 -13 76 -53 168 -95 218 -20 23 -613
546 -643 566 -1 1 8 76 20 166 31 234 31 604 0 838 -12 90 -21 165 -20 166 29
19 622 542 642 565 68 82 112 225 100 329 -3 31 -16 82 -28 113 -11 31 -178
330 -371 664 -252 437 -364 623 -402 663 -87 96 -194 141 -333 141 -69 0 -98
-8 -355 -96 -154 -53 -334 -114 -401 -137 l-121 -40 -117 87 c-64 49 -174 124
-244 168 -136 86 -424 233 -562 288 -47 18 -86 34 -87 34 -1 1 -38 185 -82
409 -91 466 -102 500 -198 595 -63 62 -138 103 -221 121 -78 16 -1489 14
-1557 -3z m973 -2697 c774 -84 1408 -652 1570 -1409 118 -546 -22 -1107 -383
-1540 -421 -505 -1105 -738 -1753 -599 -525 113 -987 470 -1225 944 -138 275
-191 501 -191 815 0 142 5 221 17 290 109 599 461 1069 992 1326 310 151 641
210 973 173z"/>
</g>
</svg>
